<svg xmlns="http://www.w3.org/2000/svg" width="24" height="16" viewBox="0 0 24 16">
  <g fill="none" fill-rule="evenodd" transform="translate(0 1)">
    <path fill="#8F8E8E" fill-rule="nonzero" d="M23.6887916,7.04455793 C23.8907827,7.31574695 23.8907827,7.68420732 23.6887916,7.955625 C23.4758115,8.2414939 18.4012151,14.9617683 11.9200377,14.9617683 C5.43886031,14.9617683 0.364031042,8.24153963 0.151283814,7.95539634 C-0.0504279379,7.68393293 -0.0504279379,7.31574695 0.151283814,7.04428354 C0.364031042,6.75841463 5.43886031,0.0381859756 11.9200377,0.0381859756 C18.4012151,0.0381859756 23.4758115,6.75841463 23.6887916,7.04455793 Z M11.9200377,13.4179573 C16.7043592,13.4179573 20.8305565,8.95989329 22.05298,7.50050305 C20.8284612,6.04157012 16.6938825,1.58199695 11.9200377,1.58199695 C7.13571619,1.58199695 3.00951885,6.04001524 1.78709534,7.49945122 C3.011102,8.95760671 7.14596009,13.4179573 11.9200377,13.4179573 Z M11.9200377,2.86852134 C14.5202195,2.86852134 16.6357251,4.94625 16.6357251,7.5 C16.6357251,10.05375 14.5202195,12.1314787 11.9200377,12.1314787 C9.31985588,12.1314787 7.20435033,10.05375 7.20435033,7.5 C7.20435033,4.94625 9.31985588,2.86852134 11.9200377,2.86852134 Z M11.9200377,10.587622 C13.6535854,10.587622 15.0637982,9.20254573 15.0637982,7.5 C15.0637982,5.79745427 13.6535388,4.41237805 11.9200377,4.41237805 C10.1865366,4.41237805 8.77627716,5.79745427 8.77627716,7.5 C8.77627716,9.20254573 10.18649,10.587622 11.9200377,10.587622 Z"/>
    <path stroke="#979797" stroke-width="2" d="M2,0 L22,14" opacity=".965"/>
  </g>
</svg>
