<svg width="48" height="48" viewBox="0 0 48 48" fill="none" xmlns="http://www.w3.org/2000/svg">
<g clip-path="url(#clip0_8801_36670)">
<path d="M24 48C37.2548 48 48 37.2548 48 24C48 10.7452 37.2548 0 24 0C10.7452 0 0 10.7452 0 24C0 37.2548 10.7452 48 24 48Z" fill="#111111"/>
<path d="M36.7746 32.0187C36.3131 33.0945 35.7429 34.1204 35.0729 35.0804C34.1779 36.3587 33.4429 37.242 32.8796 37.7337C32.0046 38.537 31.0646 38.9504 30.0596 38.9737C29.3396 38.9737 28.4696 38.7687 27.4562 38.352C26.4396 37.937 25.5062 37.7337 24.6512 37.7337C23.7562 37.7337 22.7962 37.937 21.7679 38.352C20.7412 38.7687 19.9112 38.987 19.2762 39.007C18.3146 39.0487 17.3529 38.6254 16.3946 37.7337C15.7829 37.2004 15.0179 36.2837 14.0996 34.987C13.1162 33.6054 12.3079 31.997 11.6746 30.1687C10.9963 28.1904 10.6562 26.277 10.6562 24.4237C10.6562 22.302 11.1146 20.4704 12.0329 18.937C12.7275 17.7328 13.7205 16.7278 14.9162 16.0187C16.0954 15.3115 17.4414 14.9307 18.8162 14.9154C19.5829 14.9154 20.5879 15.152 21.8329 15.6187C23.0779 16.0854 23.8779 16.322 24.2262 16.322C24.4896 16.322 25.3746 16.0437 26.8812 15.492C28.3029 14.9804 29.5029 14.7687 30.4862 14.852C33.1529 15.067 35.1546 16.117 36.4862 18.0104C34.1029 19.4554 32.9246 21.477 32.9479 24.072C32.9679 26.0937 33.7029 27.7754 35.1429 29.1104C35.7795 29.7196 36.5223 30.2071 37.3346 30.5487C37.1579 31.0604 36.9712 31.5487 36.7746 32.0187ZM30.6629 7.96703C30.6629 9.55036 30.0829 11.0304 28.9312 12.3987C27.5379 14.0254 25.8546 14.967 24.0296 14.8187C24.0057 14.6196 23.994 14.4192 23.9946 14.2187C23.9946 12.697 24.6546 11.0704 25.8329 9.7387C26.4196 9.06536 27.1662 8.5037 28.0712 8.05703C28.9746 7.61703 29.8279 7.3737 30.6312 7.33203C30.6529 7.54536 30.6629 7.75703 30.6629 7.96703Z" fill="white"/>
</g>
<defs>
<clipPath id="clip0_8801_36670">
<rect width="48" height="48" fill="white"/>
</clipPath>
</defs>
</svg>
