<?xml version="1.0" encoding="UTF-8"?>
<svg width="100px" height="101px" viewBox="0 0 100 101" version="1.1" xmlns="http://www.w3.org/2000/svg" xmlns:xlink="http://www.w3.org/1999/xlink">
    <!-- Generator: Sketch 55.1 (78136) - https://sketchapp.com -->
    <title>Flexible</title>
    <desc>Created with Sketch.</desc>
    <g id="Page-1" stroke="none" stroke-width="1" fill="none" fill-rule="evenodd">
        <g id="2-flexible-platform" transform="translate(-259.000000, -270.000000)">
            <g id="Flexible" transform="translate(259.000000, 270.000000)">
                <circle id="Oval" fill="#00C0F1" cx="49" cy="40" r="40"></circle>
                <path d="M48.6226415,80 C48.4968553,80 49,59.0491388 49,36.9738579 C49,14.8985769 48.6226415,0.0583359745 48.6226415,0.0583359745 C48.6226415,0.0583359745 35.9049725,-1.37861147 22.4085102,10.0108947 C12.0120134,18.7843764 9,30.3320336 9,40.029168 C9,50.6375596 14,63.7202132 24.3247838,71.4843887 C35.271909,79.7165612 48.6879805,80 48.6226415,80 Z" id="Oval" fill="#25D9F8"></path>
                <polygon id="Path-8" fill="#FDBF00" points="42.672322 35.6354041 29 35.6354041 49.0238818 10 69 35.6354041 56.156575 35.6354041 56.156575 100 42.672322 100"></polygon>
                <polygon id="Path-8" fill="#FFDA2D" points="42.6560155 35.6354041 29 35.6354041 49 10 49 99.9307312 42.6560155 100"></polygon>
                <path d="M39,101 L38.7495642,70.2553106 C38.3359211,63.2107039 36.9259968,58.3412334 34.5197911,55.6468991 C33.5802897,54.5948981 32.1330691,52.863714 29.4325687,51.3148632 C27.6023924,50.2651799 25.3654564,49.5034628 23.5253157,48.8766721 C21.7555076,48.2738383 18.8758217,48.0151968 14.8862579,48.1007478 L14.8862579,39 L0,53.9798859 L14.8862579,69.3215034 L14.8862579,60.2482352 C18.0617059,59.7379471 20.9413919,60.5240306 23.5253157,62.6064855 C26.1092396,64.6889405 27.2277225,68.8388615 26.8807646,75.0562486 L26.8807646,101 L39,101 Z" id="Path-9" fill="#FFDA2D"></path>
                <path d="M32.9595889,101 C33.1026803,78.2662382 32.8657681,65.7644513 32.2488525,63.4946393 C31.8600994,62.0643034 30.8730997,60.0971541 29.3018937,58.5474285 C27.9303999,57.1946849 26.0418705,56.1999933 24.6515149,55.6384577 C20.5198443,53.9697621 15.2006687,54.083467 15.2006687,54 C15.2006687,54 10.1337792,54 0,54 L15.2006687,69.3350547 L15.2006687,60.2656678 C18.443185,59.7555981 21.3836925,60.5413452 24.0221911,62.6229094 C26.6606897,64.7044735 27.8027959,68.8526193 27.4485099,75.0673467 L27.4485099,101 L32.9595889,101 Z" id="Path-9" fill="#FFB900"></path>
                <path d="M100,101 L99.7495642,70.2553106 C99.3359211,63.2107039 97.9259968,58.3412334 95.5197911,55.6468991 C94.5802897,54.5948981 93.1330691,52.863714 90.4325687,51.3148632 C88.6023924,50.2651799 86.3654564,49.5034628 84.5253157,48.8766721 C82.7555076,48.2738383 79.8758217,48.0151968 75.8862579,48.1007478 L75.8862579,39 L61,53.9798859 L75.8862579,69.3215034 L75.8862579,60.2482352 C79.0617059,59.7379471 81.9413919,60.5240306 84.5253157,62.6064855 C87.1092396,64.6889405 88.2277225,68.8388615 87.8807646,75.0562486 L87.8807646,101 L100,101 Z" id="Path-9" fill="#FFDA2D" transform="translate(80.500000, 70.000000) scale(-1, 1) translate(-80.500000, -70.000000) "></path>
                <path d="M99.9595889,101 C100.10268,78.2662382 99.8657681,65.7644513 99.2488525,63.4946393 C98.8600994,62.0643034 97.8730997,60.0971541 96.3018937,58.5474285 C94.9303999,57.1946849 93.0418705,56.1999933 91.6515149,55.6384577 C87.5198443,53.9697621 82.2006687,54.083467 82.2006687,54 C82.2006687,54 77.1337792,54 67,54 L82.2006687,69.3350547 L82.2006687,60.2656678 C85.443185,59.7555981 88.3836925,60.5413452 91.0221911,62.6229094 C93.6606897,64.7044735 94.8027959,68.8526193 94.4485099,75.0673467 L94.4485099,101 L99.9595889,101 Z" id="Path-9" fill="#FFB900" transform="translate(83.500000, 77.500000) scale(-1, 1) translate(-83.500000, -77.500000) "></path>
            </g>
        </g>
    </g>
</svg>