<?xml version="1.0" encoding="UTF-8"?>
<svg width="103px" height="102px" viewBox="0 0 103 102" version="1.1" xmlns="http://www.w3.org/2000/svg" xmlns:xlink="http://www.w3.org/1999/xlink">
    <!-- Generator: Sketch 55.1 (78136) - https://sketchapp.com -->
    <title>Payment protec tion</title>
    <desc>Created with Sketch.</desc>
    <g id="Page-1" stroke="none" stroke-width="1" fill="none" fill-rule="evenodd">
        <g id="1-payment-security" transform="translate(-247.000000, -257.000000)" fill-rule="nonzero">
            <g id="Group-3">
                <g id="Payment-protec-tion" transform="translate(247.000000, 257.000000)">
                    <g id="dollar-symbol">
                        <path d="M39.6858605,0.798575389 C38.804492,-0.266191796 37.1953358,-0.266191796 36.3139673,0.798575389 C33.3973073,4.3223618 26.628211,10.6152304 15.4813699,10.6152304 L3.03993802,10.6152304 C1.36087846,10.6152304 0,11.9739043 0,13.6498598 L0,33.3754669 C0,68.2745649 28.1480079,84.9653706 37.9999139,88 C47.85182,84.9653706 76,68.274393 76,33.3754669 L76,13.6498598 C76,11.9737324 74.6389494,10.6152304 72.960062,10.6152304 L60.5184579,10.6152304 C49.371789,10.6152304 42.6025206,4.3223618 39.6858605,0.798575389 Z" id="Path" fill="#FFD782"></path>
                        <g id="Group">
                            <path d="M60.4886063,16.6847656 L69.8773575,16.6847656 L69.8773575,33.3755469 C69.8773575,46.899875 65.2786697,58.722125 56.2088778,68.5133281 C49.5829502,75.6664219 42.1971946,79.82425 38,81.5469531 C33.8026335,79.82425 26.4170498,75.6665938 19.7911222,68.5133281 C10.7213303,58.722125 6.12264253,46.899875 6.12264253,33.3755469 L6.12264253,16.6847656 L15.5113937,16.6847656 C26.1582715,16.6847656 33.5326787,12.0212813 38,7.8464375 C42.4673213,12.0214531 49.8417285,16.6847656 60.4886063,16.6847656 Z M36.3161357,0.79853125 C33.4033756,4.3223125 26.6433303,10.6151719 15.5113937,10.6151719 L3.08659729,10.6151719 C1.40995475,10.6151719 0.0507239819,11.9740156 0.0507239819,13.6497969 L0.0507239819,33.375375 C0.0507239819,68.27425 28.161267,84.9652031 38,87.9998281 C47.838733,84.9652031 75.949276,68.27425 75.949276,33.375375 L75.949276,13.6497969 C75.949276,11.9738438 74.5898733,10.6151719 72.9134027,10.6151719 L60.4886063,10.6151719 C49.3568416,10.6151719 42.5966244,4.3223125 39.6838643,0.79853125 C39.2436833,0.266234375 38.6217557,0 38,0 C37.3782443,0 36.7564887,0.2660625 36.3161357,0.79853125 Z" id="Shape" fill="#FFDA2D"></path>
                            <path d="M60.4378824,16.6847656 L69.8266335,16.6847656 L69.8266335,33.3755469 C69.8266335,46.899875 65.2279457,58.722125 56.1581538,68.5133281 C49.5322262,75.6664219 42.1464706,79.82425 37.949276,81.5469531 C33.7519095,79.82425 26.3663258,75.6665938 19.7403982,68.5133281 C10.6706063,58.722125 6.07191855,46.899875 6.07191855,33.3755469 L6.07191855,16.6847656 L15.4606697,16.6847656 C26.1075475,16.6847656 33.4819548,12.0212813 37.949276,7.8464375 C42.4165973,12.0214531 49.7910045,16.6847656 60.4378824,16.6847656 Z M37.949276,87.9998281 C47.788009,84.9652031 75.898552,68.27425 75.898552,33.375375 L75.898552,13.6497969 C75.898552,11.9738437 74.5391493,10.6151719 72.8626787,10.6151719 L60.4378824,10.6151719 C49.3061176,10.6151719 42.5459005,4.3223125 39.6331403,0.79853125 C39.1929593,0.266234375 38.6217557,0 38,0 C38,12.4528302 37.949276,79.8687376 37.949276,87.9998281 Z" id="Shape" fill="#FDBF00"></path>
                        </g>
                    </g>
                    <g id="money" transform="translate(32.000000, 28.000000)">
                        <path d="M12.8275516,19.2423756 C12.8275516,20.7619718 12.2867493,21.9944007 11.388168,22.9461323 C10.6435838,23.7347579 9.65334347,24.3306528 8.52157673,24.7374978 L8.52157673,29.9325843 L5.04118331,29.9325843 L5.04118331,25.1111679 C2.93776701,23.447191 0.903313588,22.1762498 0.903313588,19.2423756 L4.21560191,19.2423756 C4.21560191,20.4395364 6.15645934,21.3804173 7.36227582,21.3804173 C8.5680923,21.3804173 9.51526323,20.4395364 9.51526323,19.2423756 C9.51526323,18.6488599 9.36740089,18.0468113 8.98585688,17.662754 C8.59761792,17.2719577 7.97042766,17.1043339 7.36227582,17.1043339 C3.78817319,17.1043339 0.443830623,14.9145544 0.443830623,11.367464 C0.443830623,10.3466376 0.677094588,9.07724297 1.3797785,7.98762509 C2.14881153,6.79512285 3.73607925,6.12784617 5.04118331,5.65854125 L5.04118331,0 L8.68968183,0 L8.68968183,5.65854125 C10.4527314,6.97062851 12.8275516,7.91061188 12.8275516,10.6902087 L9.51526323,10.6902087 C9.51526323,9.49276276 8.5680923,8.55216693 7.36227582,8.55216693 C6.15645934,8.55216693 3.64419983,9.4508822 3.64419983,11.367464 C3.64419983,13.2840458 6.15645934,14.4199153 7.36227582,14.4199153 C10.9363785,14.4199153 12.8275516,15.9944939 12.8275516,19.2423756 Z" id="Path" fill="#FF9100"></path>
                        <path d="M12.8275516,19.2423756 C12.8275516,20.7619718 12.2867493,21.9944007 11.388168,22.9461323 C10.6435838,23.7347579 9.65334347,24.3306528 8.52157673,24.7374978 L8.52157673,29.9325843 L5.04118331,29.9325843 L5.04118331,25.1111679 C2.93776701,23.447191 0.903313588,22.1762498 0.903313588,19.2423756 L4.21560191,19.2423756 C4.21560191,20.4395364 6.15645934,21.3804173 7.36227582,21.3804173 C8.5680923,21.3804173 9.51526323,20.4395364 9.51526323,19.2423756 C9.51526323,18.5882565 9.33963163,17.9610362 8.88658958,17.5716608 C8.51028218,17.2482363 7.90940064,17.1043339 7.36227582,17.1043339 C3.78817319,17.1043339 0.443830623,14.9145544 0.443830623,11.367464 C0.443830623,10.3466376 0.677094588,9.07724297 1.3797785,7.98762509 C2.14881153,6.79512285 3.73607925,6.12784617 5.04118331,5.65854125 L5.04118331,0 L8.68968183,0 L8.68968183,5.65854125 C10.4527314,6.97062851 12.8275516,7.91061188 12.8275516,10.6902087 L9.51526323,10.6902087 C9.51526323,9.49276276 8.5680923,8.55216693 7.36227582,8.55216693 C6.82613259,8.55216693 6.03171,8.7298399 5.3146797,9.09565946 C4.41906826,9.5525888 3.64419983,10.3030536 3.64419983,11.367464 C3.64419983,13.2840458 6.15645934,14.4199153 7.36227582,14.4199153 C10.9363785,14.4199153 12.8275516,15.9944939 12.8275516,19.2423756 Z" id="Path" fill="#537983"></path>
                        <path d="M12.7705667,19.7716943 C12.6241781,20.921111 11.7638002,23.5936873 8.63794983,24.6420252 L8.63794983,29.9325843 L7.04848179,29.9325843 L7.04848179,21.3729138 C8.47281469,21.3729138 9.34944998,20.6466591 9.42663021,19.3906609 C9.50381044,18.1346628 9.16417008,17.2501654 7.5253222,17.1056388 L7.5253222,14.4346019 C11.7471189,14.4346019 13.1403043,16.8685829 12.7705667,19.7716943 Z" id="Path" fill="#3E5959"></path>
                        <path d="M7.04848179,8.45066394 L7.04848179,0 L8.79137584,0 L8.79137584,5.57280578 C10.6884169,6.9393823 12.8275516,7.7732789 12.8275516,10.8089888 L9.61695724,10.8089888 C9.61695724,9.48816964 8.48699927,8.45066394 7.04848179,8.45066394 Z" id="Path" fill="#3E5959"></path>
                        <path d="M65.2209302,29.7407087 L65.2209302,47.3932584 L53.6627907,47.3932584 L53.6627907,29.7407087 C53.6627907,24.8566405 49.7910066,20.9144339 44.994186,20.9144339 C40.1973655,20.9144339 36.3255814,24.8566405 36.3255814,29.7407087 L36.3255814,47.3932584 L24.7674419,47.3932584 L24.7674419,29.7407087 C24.7674419,18.3842351 33.8405814,9.14606742 44.994186,9.14606742 C56.1477907,9.14606742 65.2209302,18.3842351 65.2209302,29.7407087 Z" id="Path" fill="#537983"></path>
                        <path d="M65.2209302,29.7407087 L65.2209302,47.3932584 L53.4269103,47.3932584 L53.4269103,29.7407087 C53.4269103,24.8566405 49.4761102,20.9144339 44.5813953,20.9144339 L44.5813953,9.14606742 C55.9626246,9.14606742 65.2209302,18.3842351 65.2209302,29.7407087 Z" id="Path" fill="#3E5959"></path>
                        <polygon id="Path" fill="#25D9F8" points="18.1627907 44.0674157 18.1627907 74 71 74 71 44.0674157"></polygon>
                        <rect id="Rectangle" fill="#00C0F1" x="44.5813953" y="44.0674157" width="26.4186047" height="29.9325843"></rect>
                        <rect id="Rectangle" fill="#537983" x="41.2790698" y="55.7078652" width="5.77906977" height="5.82022472"></rect>
                        <rect id="Rectangle" fill="#3E5959" x="44.5813953" y="55.7078652" width="2.47674419" height="5.82022472"></rect>
                    </g>
                </g>
            </g>
        </g>
    </g>
</svg>