<?xml version="1.0" encoding="UTF-8"?>
<svg width="84px" height="102px" viewBox="0 0 84 102" version="1.1" xmlns="http://www.w3.org/2000/svg" xmlns:xlink="http://www.w3.org/1999/xlink">
    <!-- Generator: Sketch 55.1 (78136) - https://sketchapp.com -->
    <title>transfer</title>
    <desc>Created with Sketch.</desc>
    <g id="Page-1" stroke="none" stroke-width="1" fill="none" fill-rule="evenodd">
        <g id="4-Lowest-transaction" transform="translate(-257.000000, -258.000000)" fill-rule="nonzero">
            <g id="Group-3">
                <g id="transfer" transform="translate(257.000000, 258.000000)">
                    <path d="M7,0 L56,0 C59.8657227,0 63,3.14971713 63,7.03448276 L63,94.9655172 C63,97.7698217 61.0560266,99.932008 58.4579468,100.959898 C57.6642222,101.273923 56.0744882,101.644927 55.1698608,101.644927 L7,102 C3.13427734,102 0,98.8502829 0,94.9655172 L0,7.03448276 C0,3.14971713 3.13427734,0 7,0 Z" id="Path" fill="#FFDA2D"></path>
                    <path d="M31,0 L55.8888889,0 C59.8159722,0 63,3.11480978 63,6.95652174 L63,80 C41.6666667,80 31,80 31,80 C31,80 31,53.3333333 31,0 Z" id="Path" fill="#FDBF00"></path>
                    <path d="M0,80 L63,80 L63,94.6410258 C62.714386,98.6535909 60.260498,100.796485 56.205719,101.467145 C44.7196816,101.738157 36.0613259,101.902955 30.2306519,101.961539 C25.1267217,102.01282 17.383171,102.01282 7,101.961539 C3.13427734,101.961539 0,98.6837505 0,94.6410258 L0,80 Z" id="Path" fill="#FFDA2D"></path>
                    <path d="M57.6435256,80 L31,80 C31,83.0316857 31,101.958947 31,101.958947 C31,101.958947 37.2620126,102.051316 44.4622657,101.958947 C49.5364609,101.893853 54.5381794,102.163106 58.3620855,100.876681 C63.645474,99.0992627 62.9722307,93.8766859 62.9722307,92.809386 L62.9722307,80 L57.6435256,80 Z" id="Path" fill="#FDBF00"></path>
                    <path d="M17,15 C17,16.1044922 16.1044922,17 15,17 C13.8955078,17 13,16.1044922 13,15 C13,13.8955078 13.8955078,13 15,13 C16.1044922,13 17,13.8955078 17,15 Z" id="Path" fill="#3E5959"></path>
                    <path d="M24,15 C24,16.1044922 23.1044922,17 22,17 C20.8955078,17 20,16.1044922 20,15 C20,13.8955078 20.8955078,13 22,13 C23.1044922,13 24,13.8955078 24,15 Z" id="Path" fill="#3E5959"></path>
                    <path d="M45.25,19 L34.75,19 C33.7835693,19 33,19.8955078 33,21 C33,22.1044922 33.7835693,23 34.75,23 L45.25,23 C46.2164307,23 47,22.1044922 47,21 C47,19.8955078 46.2164307,19 45.25,19 Z" id="Path" fill="#FCBC04"></path>
                    <polygon id="Path" fill="#00C0F1" points="35 29.5 22.75 29.5 22.75 26 16.3839811 31.0928151 14 33 22.75 40 22.75 36.5 35 36.5"></polygon>
                    <polygon id="Path" fill="#2D72BC" points="14 57.5 26.25 57.5 26.25 61 35 54 26.25 47 26.25 50.5 14 50.5"></polygon>
                    <g id="Group" transform="translate(8.000000, 8.000000)">
                        <path d="M1.77175141,2.84217094e-14 L46.6745763,2.84217094e-14 C47.6530191,2.84217094e-14 48.4463277,0.778820377 48.4463277,1.73939394 L48.4463277,85.4636364 C48.4463277,86.4242099 47.6530191,87.2030303 46.6745763,87.2030303 C39.7389654,87.2030303 34.5372572,87.2030303 31.0694518,87.2030303 C24.5588517,87.2030303 14.7929516,87.2030303 1.77175141,87.2030303 C0.79330856,87.2030303 0,86.4242099 0,85.4636364 L0,1.73939394 C0,0.778820377 0.79330856,2.84217094e-14 1.77175141,2.84217094e-14 Z" id="Path-7" stroke="#979797" opacity="0.260928199"></path>
                        <path d="M17.5514124,83.5545455 L31.7254237,83.5545455 C32.7038666,83.5545455 33.4971751,84.3333658 33.4971751,85.2939394 L33.4971751,88.7727273 C33.4971751,89.7333008 32.7038666,90.5121212 31.7254237,90.5121212 L17.5514124,90.5121212 C16.5729696,90.5121212 15.779661,89.7333008 15.779661,88.7727273 L15.779661,85.2939394 C15.779661,84.3333658 16.5729696,83.5545455 17.5514124,83.5545455 Z" id="Path" fill="#537983"></path>
                        <path d="M19.3231638,83.5545455 L31.7254237,83.5545455 C32.7038666,83.5545455 33.4971751,84.3333658 33.4971751,85.2939394 L33.4971751,87.0333333 L22.8666667,87.0333333 C20.909781,87.0333333 19.3231638,85.4756926 19.3231638,83.5545455 Z" id="Path" fill="#537983"></path>
                    </g>
                    <path d="M84,46 C84,57.5980224 74.5980224,67 63,67 C51.4019776,67 42,57.5980224 42,46 C42,34.4019776 51.4019776,25 63,25 C74.5980224,25 84,34.4019776 84,46 Z" id="Path" fill="#3E5959"></path>
                    <path d="M84,45.9969639 C84,48.3927556 83.6390383,51.2612406 82.5661963,53.8786665 C81.4414465,56.6227324 79.127959,59.6821212 76.4393848,61.9822954 C70.1085919,67.3985218 63,66.9931272 63,66.9931272 C63,66.9931272 63,24.8504375 63,25.0008007 C63,25.1511638 70.2191602,24.6618805 76.4393848,29.9410744 C81.9813833,34.6446481 84,40.8851113 84,45.9969639 Z" id="Path" fill="#537983"></path>
                    <path d="M79,46 C79,54.8368056 71.8368056,62 63,62 C54.1631944,62 47,54.8368056 47,46 C47,37.1631944 54.1631944,30 63,30 C71.8368056,30 79,37.1631944 79,46 Z" id="Path" fill="#25D9F8"></path>
                    <path d="M78.9734667,45.9932492 C79.2823697,50.1047222 76.861251,55.2597364 73.4240909,58.1704987 C68.3318095,62.4829022 63,61.9822196 63,61.9822196 C63,61.9822196 63,30.0042789 63,30.0042789 C63,30.0042789 68.7355386,29.6998014 73.82782,34.2277223 C78.4134412,38.3051345 78.7063933,42.4385246 78.9734667,45.9932492 Z" id="Path" fill="#00C0F1"></path>
                    <path d="M60.75,43.6666667 C60.75,42.6235351 61.5335693,41.7777778 62.5,41.7777778 C63.4664307,41.7777778 64.25,42.6235351 64.25,43.6666667 C64.25,44.1882325 64.6417846,44.6111111 65.125,44.6111111 C65.6082154,44.6111111 66,44.1882325 66,43.6666667 C65.994873,41.9484049 64.9160767,40.450575 63.375,40.0212403 L63.375,38.9444444 C63.375,38.4228787 62.9832154,38 62.5,38 C62.0167846,38 61.625,38.4228787 61.625,38.9444444 L61.625,40.0212403 C59.9399414,40.5151368 58.8496094,42.27398 59.0700684,44.1435004 C59.2905273,46.013482 60.7538452,47.4218479 62.5,47.4444444 C63.4664307,47.4444444 64.25,48.2902018 64.25,49.3333333 C64.25,50.3764649 63.4664307,51.2222222 62.5,51.2222222 C61.5335693,51.2222222 60.75,50.3764649 60.75,49.3333333 C60.75,48.8117675 60.3582154,48.3888889 59.875,48.3888889 C59.3917846,48.3888889 59,48.8117675 59,49.3333333 C59.005127,51.0515951 60.0839233,52.549425 61.625,52.9787597 L61.625,54.0555556 C61.625,54.5771213 62.0167846,55 62.5,55 C62.9832154,55 63.375,54.5771213 63.375,54.0555556 L63.375,52.9787597 C65.0600586,52.4848632 66.1503906,50.72602 65.9299316,48.8564996 C65.7094727,46.986518 64.2461548,45.5781521 62.5,45.5555556 C61.5335693,45.5555556 60.75,44.7097982 60.75,43.6666667 Z" id="Path" fill="#FFFFFF"></path>
                </g>
            </g>
        </g>
    </g>
</svg>